<?xml version="1.0" encoding="utf-8"?>
<!-- Generator: Adobe Illustrator 16.0.0, SVG Export Plug-In . SVG Version: 6.00 Build 0)  -->
<!DOCTYPE svg PUBLIC "-//W3C//DTD SVG 1.0//EN" "http://www.w3.org/TR/2001/REC-SVG-20010904/DTD/svg10.dtd">
<svg version="1.0" id="圖層_1" focusable="false" xmlns="http://www.w3.org/2000/svg" xmlns:xlink="http://www.w3.org/1999/xlink"
	 x="0px" y="0px" width="1920px" height="1240px" viewBox="0 0 1920 1240" enable-background="new 0 0 1920 1240"
	 xml:space="preserve">
<path fill="#F9D15A" d="M359.375,620c0-331.797,268.828-600.625,600.625-600.625S1560.625,288.203,1560.625,620
	S1291.797,1220.625,960,1220.625S359.375,951.797,359.375,620z M1066.562,900.938V620h171.711c25.914,0,38.992-31.484,20.586-49.648
	l-278.273-276.82c-11.383-11.383-29.547-11.383-40.93,0L661.14,570.352C642.734,588.758,655.812,620,681.726,620h171.711v280.938
	c0,15.984,13.078,29.063,29.063,29.063h155C1053.484,930,1066.562,916.922,1066.562,900.938z"/>
</svg>
