<?xml version="1.0" encoding="utf-8"?>
<!-- Generator: Adobe Illustrator 24.1.2, SVG Export Plug-In . SVG Version: 6.00 Build 0)  -->
<svg version="1.1" id="圖層_1" xmlns="http://www.w3.org/2000/svg" xmlns:xlink="http://www.w3.org/1999/xlink" x="0px" y="0px"
	 viewBox="0 0 500 500" style="enable-background:new 0 0 500 500;" xml:space="preserve">
<style type="text/css">
	.st0{fill:#58B1DB;}
</style>
<path class="st0" d="M151.26,402.57c-6.42,0-11.75-2.92-16.31-7.44c-4.55-4.51-6.76-10.12-6.76-16.45c0-6.32,2.21-11.35,6.76-15.86
	c4.56-4.51,9.89-6.48,16.31-6.48h134.61c10.98,0,20.56-4.44,28.45-12.39c7.89-7.94,11.87-17.77,11.87-28.8
	c0-11.35-3.99-21.62-11.87-29.55c-7.91-7.96-17.48-12.47-28.45-12.47H222c-11.96,0-23.31-1.88-33.73-6.36
	c-10.5-4.48-19.75-10.51-27.5-18.27c-7.76-7.76-13.96-16.9-18.46-27.41c-4.48-10.42-6.74-21.73-6.74-33.7
	c0-11.96,2.27-23.28,6.74-33.7c4.48-10.49,10.7-19.73,18.46-27.5c7.78-7.79,16.99-15.63,27.38-20.3c10.23-4.6,21.45-8.46,33.36-8.46
	h62.39c6.4,0,11.73,3.74,16.31,8.28c4.54,4.5,6.75,10.53,6.75,16.84c0,6.32-2.22,10.72-6.79,15.23c-4.59,4.53-9.95,5.88-16.39,5.88
	h-62.64c-11.21,0-20.62,5.81-28.29,13.55c-7.74,7.84-11.66,18.21-11.66,29.62c0,11.05,3.88,20.31,11.55,28.28
	c7.71,8.05,17.4,11.77,28.76,11.77h63.87c11.94,0,23.25,3.01,33.66,7.6c10.51,4.64,19.79,11.28,27.58,19.06
	c7.77,7.74,13.98,17.14,18.46,27.59c4.47,10.38,6.73,21.78,6.73,33.72c0,11.59-2.26,22.81-6.68,33.21
	c-4.48,10.49-10.57,19.76-18.12,27.49c-7.54,7.75-16.67,14.76-27.09,19.38c-10.33,4.59-21.44,7.64-33.06,7.64L151.26,402.57
	L151.26,402.57z"/>
</svg>
